 <svg version="1.0" xmlns="http://www.w3.org/2000/svg" width="700.000000pt" height="788.000000pt" viewBox="0 0 700.000000 788.000000" preserveAspectRatio="xMidYMid meet">
<metadata>
Created by potrace 1.12, written by Peter Selinger 2001-2015
</metadata>
<g transform="translate(0.000000,788.000000) scale(0.100000,-0.100000)" fill="#000000" stroke="none">
<path d="M303 6990 c3 -715 4 -737 25 -817 63 -242 216 -393 458 -453 205 -50
245 -53 997 -57 389 -3 707 -7 707 -10 0 -4 -234 -1567 -396 -2643 -14 -91
-40 -268 -59 -395 -19 -126 -64 -426 -100 -665 -36 -239 -90 -599 -120 -800
-30 -201 -75 -498 -99 -660 -24 -162 -43 -296 -42 -297 1 -2 74 131 162 295
89 163 342 633 564 1045 l403 747 1703 0 c937 0 1704 4 1704 9 0 4 -9 66 -20
137 -54 357 -95 868 -120 1514 -42 1097 -38 2399 10 3035 10 130 43 414 57
488 l6 32 -54 -51 c-145 -138 -358 -297 -482 -360 -85 -44 -202 -82 -283 -94
-57 -8 -604 -10 -1974 -7 -1891 3 -1895 3 -2006 25 -325 63 -573 189 -784 401
-58 58 -134 144 -168 191 -33 47 -68 94 -77 105 -13 18 -15 -51 -12 -715z
m4427 -2230 l0 -900 -740 0 c-407 0 -740 2 -740 5 0 3 16 103 35 223 26 165
160 1016 241 1535 l6 37 599 0 599 0 0 -900z"></path>
</g>
</svg>